<svg xmlns="http://www.w3.org/2000/svg" xmlns:xlink="http://www.w3.org/1999/xlink" width="16" height="16" version="1.1" viewBox="0 0 16 16"><title>Page 1</title><desc>Created with Sketch.</desc><g id="Page-1" fill="none" fill-rule="evenodd" stroke="none" stroke-width="1"><g id="Artboard-8" fill="#FFF" transform="translate(-626.000000, -69.000000)"><g id="Page-1" transform="translate(626.000000, 69.000000)"><polygon id="Fill-1" points="0 16 4 16 4 12 0 12"/><polygon id="Fill-2" points="12 16 16 16 16 12 12 12"/><polygon id="Fill-3" points="6 16 10 16 10 12 6 12"/><polygon id="Fill-4" points="2.667 8.667 7.333 8.667 7.333 10.667 8.667 10.667 8.667 8.667 13.333 8.667 13.333 10.667 14.667 10.667 14.667 7.333 8.667 7.333 8.667 5.333 7.333 5.333 7.333 7.333 1.333 7.333 1.333 10.667 2.667 10.667"/><polygon id="Fill-5" points="6 4 10 4 10 0 6 0"/></g></g></g></svg>